<mxfile host="Electron" agent="Mozilla/5.0 (Windows NT 10.0; Win64; x64) AppleWebKit/537.36 (KHTML, like Gecko) draw.io/27.0.2 Chrome/134.0.6998.205 Electron/35.3.0 Safari/537.36" version="27.0.2">
  <diagram name="PÃ¡gina-1" id="De-9zEaExDt_u-gnwqTp">
    <mxGraphModel dx="2057" dy="586" grid="0" gridSize="10" guides="1" tooltips="1" connect="1" arrows="1" fold="1" page="0" pageScale="1" pageWidth="827" pageHeight="1169" background="#0A0A0A" math="0" shadow="0">
      <root>
        <mxCell id="0" />
        <mxCell id="1" parent="0" />
        <mxCell id="_vH6LDevAkohXij_CY47-2" value="" style="sketch=0;outlineConnect=0;dashed=0;verticalLabelPosition=bottom;verticalAlign=top;align=center;html=1;fontSize=12;fontStyle=0;aspect=fixed;pointerEvents=1;shape=mxgraph.aws4.traditional_server;fillColor=#b0e3e6;strokeColor=#0e8088;" parent="1" vertex="1">
          <mxGeometry x="610" y="444" width="47.88" height="83" as="geometry" />
        </mxCell>
        <mxCell id="_vH6LDevAkohXij_CY47-6" value="" style="sketch=0;outlineConnect=0;dashed=0;verticalLabelPosition=bottom;verticalAlign=top;align=center;html=1;fontSize=12;fontStyle=0;aspect=fixed;pointerEvents=1;shape=mxgraph.aws4.traditional_server;fillColor=#b0e3e6;strokeColor=#0e8088;" parent="1" vertex="1">
          <mxGeometry x="314" y="520" width="45" height="78" as="geometry" />
        </mxCell>
        <mxCell id="_vH6LDevAkohXij_CY47-8" value="" style="strokeWidth=2;html=1;shape=mxgraph.flowchart.direct_data;whiteSpace=wrap;fillColor=#12100C;strokeColor=#008AB4;fillStyle=solid;" parent="1" vertex="1">
          <mxGeometry x="194" y="217" width="309" height="41" as="geometry" />
        </mxCell>
        <mxCell id="_vH6LDevAkohXij_CY47-11" value="" style="endArrow=none;html=1;rounded=0;fontSize=12;startSize=8;endSize=8;curved=1;fillColor=#b0e3e6;strokeColor=#1BF1FF;strokeWidth=2;" parent="1" source="_vH6LDevAkohXij_CY47-36" target="_vH6LDevAkohXij_CY47-8" edge="1">
          <mxGeometry width="50" height="50" relative="1" as="geometry">
            <mxPoint x="229" y="505" as="sourcePoint" />
            <mxPoint x="367" y="362" as="targetPoint" />
          </mxGeometry>
        </mxCell>
        <mxCell id="_vH6LDevAkohXij_CY47-13" value="" style="sketch=0;outlineConnect=0;dashed=0;verticalLabelPosition=bottom;verticalAlign=top;align=center;html=1;fontSize=12;fontStyle=0;aspect=fixed;pointerEvents=1;shape=mxgraph.aws4.traditional_server;fillColor=#b0e3e6;strokeColor=#0e8088;" parent="1" vertex="1">
          <mxGeometry x="397" y="444" width="45" height="78" as="geometry" />
        </mxCell>
        <mxCell id="_vH6LDevAkohXij_CY47-14" value="" style="endArrow=none;html=1;rounded=0;fontSize=12;startSize=8;endSize=8;curved=1;fillColor=#b0e3e6;strokeColor=#1BF1FF;strokeWidth=2;entryX=0.689;entryY=0.976;entryDx=0;entryDy=0;entryPerimeter=0;" parent="1" source="_vH6LDevAkohXij_CY47-38" target="_vH6LDevAkohXij_CY47-8" edge="1">
          <mxGeometry width="50" height="50" relative="1" as="geometry">
            <mxPoint x="301" y="604" as="sourcePoint" />
            <mxPoint x="390" y="398" as="targetPoint" />
          </mxGeometry>
        </mxCell>
        <mxCell id="_vH6LDevAkohXij_CY47-15" value="" style="sketch=0;outlineConnect=0;dashed=0;verticalLabelPosition=bottom;verticalAlign=top;align=center;html=1;fontSize=12;fontStyle=0;aspect=fixed;pointerEvents=1;shape=mxgraph.aws4.traditional_server;fillColor=#b0e3e6;strokeColor=#0e8088;" parent="1" vertex="1">
          <mxGeometry x="525" y="445" width="45" height="78" as="geometry" />
        </mxCell>
        <mxCell id="_vH6LDevAkohXij_CY47-16" value="" style="endArrow=none;html=1;rounded=0;fontSize=12;startSize=8;endSize=8;curved=1;fillColor=#b0e3e6;strokeColor=#1BF1FF;strokeWidth=2;entryX=0.91;entryY=1;entryDx=0;entryDy=0;entryPerimeter=0;" parent="1" source="_vH6LDevAkohXij_CY47-19" target="_vH6LDevAkohXij_CY47-8" edge="1">
          <mxGeometry width="50" height="50" relative="1" as="geometry">
            <mxPoint x="419" y="607" as="sourcePoint" />
            <mxPoint x="533.1899999999998" y="226" as="targetPoint" />
          </mxGeometry>
        </mxCell>
        <mxCell id="_vH6LDevAkohXij_CY47-18" value="" style="endArrow=none;html=1;rounded=0;fontSize=12;startSize=8;endSize=8;curved=1;fillColor=#b0e3e6;strokeColor=#1BF1FF;strokeWidth=2;entryX=0.5;entryY=1;entryDx=0;entryDy=0;" parent="1" source="_vH6LDevAkohXij_CY47-72" target="_vH6LDevAkohXij_CY47-17" edge="1">
          <mxGeometry width="50" height="50" relative="1" as="geometry">
            <mxPoint x="92" y="442" as="sourcePoint" />
            <mxPoint x="188" y="299" as="targetPoint" />
          </mxGeometry>
        </mxCell>
        <mxCell id="_vH6LDevAkohXij_CY47-17" value="&lt;font color=&quot;#ffffff&quot;&gt;Puerto 3306&amp;nbsp;&lt;/font&gt;d" style="text;html=1;whiteSpace=wrap;strokeColor=none;fillColor=none;align=center;verticalAlign=middle;rounded=0;" parent="1" vertex="1">
          <mxGeometry x="512" y="285.5" width="60" height="30" as="geometry" />
        </mxCell>
        <mxCell id="_vH6LDevAkohXij_CY47-20" value="" style="endArrow=none;html=1;rounded=0;fontSize=12;startSize=8;endSize=8;curved=1;fillColor=#b0e3e6;strokeColor=#1BF1FF;strokeWidth=2;entryX=0.5;entryY=1;entryDx=0;entryDy=0;" parent="1" source="_vH6LDevAkohXij_CY47-70" target="_vH6LDevAkohXij_CY47-19" edge="1">
          <mxGeometry width="50" height="50" relative="1" as="geometry">
            <mxPoint x="486" y="445" as="sourcePoint" />
            <mxPoint x="444" y="299" as="targetPoint" />
          </mxGeometry>
        </mxCell>
        <mxCell id="_vH6LDevAkohXij_CY47-19" value="&lt;font color=&quot;#ffffff&quot;&gt;Puerto 3309&lt;/font&gt;" style="text;html=1;whiteSpace=wrap;strokeColor=none;fillColor=none;align=center;verticalAlign=middle;rounded=0;" parent="1" vertex="1">
          <mxGeometry x="445" y="282" width="44" height="37" as="geometry" />
        </mxCell>
        <mxCell id="_vH6LDevAkohXij_CY47-23" value="" style="endArrow=none;html=1;rounded=0;fontSize=12;startSize=8;endSize=8;curved=1;fillColor=#b0e3e6;strokeColor=#1BF1FF;strokeWidth=2;entryX=0.25;entryY=0;entryDx=0;entryDy=0;exitX=0.977;exitY=0.935;exitDx=0;exitDy=0;exitPerimeter=0;" parent="1" source="_vH6LDevAkohXij_CY47-8" target="_vH6LDevAkohXij_CY47-17" edge="1">
          <mxGeometry width="50" height="50" relative="1" as="geometry">
            <mxPoint x="489" y="438" as="sourcePoint" />
            <mxPoint x="525" y="355" as="targetPoint" />
          </mxGeometry>
        </mxCell>
        <mxCell id="_vH6LDevAkohXij_CY47-29" value="" style="sketch=0;outlineConnect=0;dashed=0;verticalLabelPosition=bottom;verticalAlign=top;align=center;html=1;fontSize=12;fontStyle=0;aspect=fixed;pointerEvents=1;shape=mxgraph.aws4.traditional_server;fillColor=#b0e3e6;strokeColor=#0e8088;" parent="1" vertex="1">
          <mxGeometry x="104" y="441" width="45" height="78" as="geometry" />
        </mxCell>
        <mxCell id="_vH6LDevAkohXij_CY47-30" value="" style="endArrow=none;html=1;rounded=0;fontSize=12;startSize=8;endSize=8;curved=1;fillColor=#b0e3e6;strokeColor=#1BF1FF;strokeWidth=2;entryX=0.08;entryY=1;entryDx=0;entryDy=0;entryPerimeter=0;" parent="1" source="_vH6LDevAkohXij_CY47-32" target="_vH6LDevAkohXij_CY47-8" edge="1">
          <mxGeometry width="50" height="50" relative="1" as="geometry">
            <mxPoint x="107" y="508" as="sourcePoint" />
            <mxPoint x="215" y="261" as="targetPoint" />
          </mxGeometry>
        </mxCell>
        <mxCell id="_vH6LDevAkohXij_CY47-33" value="" style="endArrow=none;html=1;rounded=0;fontSize=12;startSize=8;endSize=8;curved=1;fillColor=#b0e3e6;strokeColor=#1BF1FF;strokeWidth=2;entryX=0.08;entryY=1;entryDx=0;entryDy=0;entryPerimeter=0;" parent="1" source="_vH6LDevAkohXij_CY47-60" target="_vH6LDevAkohXij_CY47-32" edge="1">
          <mxGeometry width="50" height="50" relative="1" as="geometry">
            <mxPoint x="114" y="450" as="sourcePoint" />
            <mxPoint x="219" y="258" as="targetPoint" />
          </mxGeometry>
        </mxCell>
        <mxCell id="_vH6LDevAkohXij_CY47-32" value="&lt;font color=&quot;#ffffff&quot;&gt;Puerto 25&lt;/font&gt;" style="text;html=1;whiteSpace=wrap;strokeColor=none;fillColor=none;align=center;verticalAlign=middle;rounded=0;" parent="1" vertex="1">
          <mxGeometry x="187" y="271" width="44" height="37" as="geometry" />
        </mxCell>
        <mxCell id="_vH6LDevAkohXij_CY47-37" value="" style="endArrow=none;html=1;rounded=0;fontSize=12;startSize=8;endSize=8;curved=1;fillColor=#b0e3e6;strokeColor=#1BF1FF;strokeWidth=2;" parent="1" source="_vH6LDevAkohXij_CY47-62" target="_vH6LDevAkohXij_CY47-36" edge="1">
          <mxGeometry width="50" height="50" relative="1" as="geometry">
            <mxPoint x="235" y="447" as="sourcePoint" />
            <mxPoint x="337" y="258" as="targetPoint" />
          </mxGeometry>
        </mxCell>
        <mxCell id="_vH6LDevAkohXij_CY47-36" value="&lt;font color=&quot;#ffffff&quot;&gt;Puerto 8081/4431&lt;/font&gt;" style="text;html=1;whiteSpace=wrap;strokeColor=none;fillColor=none;align=center;verticalAlign=middle;rounded=0;" parent="1" vertex="1">
          <mxGeometry x="313" y="279" width="44" height="37" as="geometry" />
        </mxCell>
        <mxCell id="_vH6LDevAkohXij_CY47-39" value="" style="endArrow=none;html=1;rounded=0;fontSize=12;startSize=8;endSize=8;curved=1;fillColor=#b0e3e6;strokeColor=#1BF1FF;strokeWidth=2;" parent="1" source="_vH6LDevAkohXij_CY47-67" target="_vH6LDevAkohXij_CY47-38" edge="1">
          <mxGeometry width="50" height="50" relative="1" as="geometry">
            <mxPoint x="364" y="445" as="sourcePoint" />
            <mxPoint x="394" y="311" as="targetPoint" />
          </mxGeometry>
        </mxCell>
        <mxCell id="_vH6LDevAkohXij_CY47-54" value="" style="edgeStyle=none;curved=1;rounded=0;orthogonalLoop=1;jettySize=auto;html=1;fontSize=12;startSize=8;endSize=8;" parent="1" source="_vH6LDevAkohXij_CY47-67" target="_vH6LDevAkohXij_CY47-13" edge="1">
          <mxGeometry relative="1" as="geometry" />
        </mxCell>
        <mxCell id="_vH6LDevAkohXij_CY47-38" value="&lt;font color=&quot;#ffffff&quot;&gt;Puerto 873&lt;/font&gt;" style="text;html=1;whiteSpace=wrap;strokeColor=none;fillColor=none;align=center;verticalAlign=middle;rounded=0;" parent="1" vertex="1">
          <mxGeometry x="378" y="282" width="44" height="37" as="geometry" />
        </mxCell>
        <mxCell id="_vH6LDevAkohXij_CY47-42" value="&lt;font color=&quot;#ffffff&quot;&gt;Servidor Respaldo Rsync&lt;/font&gt;" style="text;html=1;whiteSpace=wrap;strokeColor=none;fillColor=none;align=center;verticalAlign=middle;rounded=0;" parent="1" vertex="1">
          <mxGeometry x="389.5" y="535" width="60" height="30" as="geometry" />
        </mxCell>
        <mxCell id="_vH6LDevAkohXij_CY47-46" value="" style="sketch=0;outlineConnect=0;dashed=0;verticalLabelPosition=bottom;verticalAlign=top;align=center;html=1;fontSize=12;fontStyle=0;aspect=fixed;pointerEvents=1;shape=mxgraph.aws4.traditional_server;fillColor=#b0e3e6;strokeColor=#0e8088;" parent="1" vertex="1">
          <mxGeometry x="208" y="519" width="45" height="78" as="geometry" />
        </mxCell>
        <mxCell id="_vH6LDevAkohXij_CY47-47" value="" style="endArrow=none;html=1;rounded=0;fontSize=12;startSize=8;endSize=8;curved=1;fillColor=#b0e3e6;strokeColor=#1BF1FF;strokeWidth=2;" parent="1" source="_vH6LDevAkohXij_CY47-61" target="_vH6LDevAkohXij_CY47-48" edge="1">
          <mxGeometry width="50" height="50" relative="1" as="geometry">
            <mxPoint x="177" y="450" as="sourcePoint" />
            <mxPoint x="279" y="261" as="targetPoint" />
          </mxGeometry>
        </mxCell>
        <mxCell id="_vH6LDevAkohXij_CY47-48" value="&lt;font color=&quot;#ffffff&quot;&gt;Puerto 8080/4432&lt;/font&gt;" style="text;html=1;whiteSpace=wrap;strokeColor=none;fillColor=none;align=center;verticalAlign=middle;rounded=0;" parent="1" vertex="1">
          <mxGeometry x="236" y="285.5" width="44" height="37" as="geometry" />
        </mxCell>
        <mxCell id="_vH6LDevAkohXij_CY47-49" value="" style="endArrow=none;html=1;rounded=0;fontSize=12;startSize=8;endSize=8;curved=1;fillColor=#b0e3e6;strokeColor=#1BF1FF;strokeWidth=2;entryX=0.297;entryY=1.122;entryDx=0;entryDy=0;entryPerimeter=0;" parent="1" source="_vH6LDevAkohXij_CY47-48" target="_vH6LDevAkohXij_CY47-8" edge="1">
          <mxGeometry width="50" height="50" relative="1" as="geometry">
            <mxPoint x="333" y="298" as="sourcePoint" />
            <mxPoint x="338" y="277" as="targetPoint" />
          </mxGeometry>
        </mxCell>
        <mxCell id="_vH6LDevAkohXij_CY47-52" value="&lt;font color=&quot;#ffffff&quot;&gt;Servidor SMTP&lt;/font&gt;" style="text;html=1;whiteSpace=wrap;strokeColor=none;fillColor=none;align=center;verticalAlign=middle;rounded=0;" parent="1" vertex="1">
          <mxGeometry x="96.5" y="535" width="60" height="30" as="geometry" />
        </mxCell>
        <mxCell id="_vH6LDevAkohXij_CY47-55" value="&lt;font color=&quot;#ffffff&quot;&gt;Servidor Web&lt;/font&gt;" style="text;html=1;whiteSpace=wrap;strokeColor=none;fillColor=none;align=center;verticalAlign=middle;rounded=0;" parent="1" vertex="1">
          <mxGeometry x="314" y="608" width="60" height="30" as="geometry" />
        </mxCell>
        <mxCell id="_vH6LDevAkohXij_CY47-56" value="&lt;font color=&quot;#ffffff&quot;&gt;Servidor Web&lt;br&gt;Slave&lt;/font&gt;" style="text;html=1;whiteSpace=wrap;strokeColor=none;fillColor=none;align=center;verticalAlign=middle;rounded=0;" parent="1" vertex="1">
          <mxGeometry x="201" y="610" width="60" height="30" as="geometry" />
        </mxCell>
        <mxCell id="_vH6LDevAkohXij_CY47-57" value="&lt;font color=&quot;#ffffff&quot;&gt;Servidor&amp;nbsp;&lt;br&gt;Base de datos&lt;/font&gt;" style="text;html=1;whiteSpace=wrap;strokeColor=none;fillColor=none;align=center;verticalAlign=middle;rounded=0;" parent="1" vertex="1">
          <mxGeometry x="575.44" y="535" width="117" height="30" as="geometry" />
        </mxCell>
        <mxCell id="_vH6LDevAkohXij_CY47-58" value="&lt;font color=&quot;#ffffff&quot;&gt;Servidor&amp;nbsp;&lt;br&gt;Base de datos&lt;br&gt;Slave&lt;/font&gt;" style="text;html=1;whiteSpace=wrap;strokeColor=none;fillColor=none;align=center;verticalAlign=middle;rounded=0;" parent="1" vertex="1">
          <mxGeometry x="489" y="539" width="117" height="30" as="geometry" />
        </mxCell>
        <mxCell id="_vH6LDevAkohXij_CY47-59" value="&lt;font color=&quot;#ffffff&quot;&gt;DMZ 192.168.20.0/24&lt;/font&gt;" style="text;html=1;whiteSpace=wrap;strokeColor=none;fillColor=none;align=center;verticalAlign=middle;rounded=0;shadow=1;" parent="1" vertex="1">
          <mxGeometry x="260" y="219" width="168" height="37" as="geometry" />
        </mxCell>
        <mxCell id="_vH6LDevAkohXij_CY47-64" value="" style="endArrow=none;html=1;rounded=0;fontSize=12;startSize=8;endSize=8;curved=1;fillColor=#b0e3e6;strokeColor=#1BF1FF;strokeWidth=2;entryX=0.08;entryY=1;entryDx=0;entryDy=0;entryPerimeter=0;" parent="1" source="_vH6LDevAkohXij_CY47-29" target="_vH6LDevAkohXij_CY47-60" edge="1">
          <mxGeometry width="50" height="50" relative="1" as="geometry">
            <mxPoint x="141" y="441" as="sourcePoint" />
            <mxPoint x="191" y="308" as="targetPoint" />
          </mxGeometry>
        </mxCell>
        <mxCell id="_vH6LDevAkohXij_CY47-60" value="&lt;font color=&quot;#ffffff&quot;&gt;192.168.20.2&lt;/font&gt;" style="text;html=1;whiteSpace=wrap;strokeColor=none;fillColor=none;align=center;verticalAlign=middle;rounded=0;" parent="1" vertex="1">
          <mxGeometry x="127" y="365" width="44" height="37" as="geometry" />
        </mxCell>
        <mxCell id="_vH6LDevAkohXij_CY47-65" value="" style="endArrow=none;html=1;rounded=0;fontSize=12;startSize=8;endSize=8;curved=1;fillColor=#b0e3e6;strokeColor=#1BF1FF;strokeWidth=2;" parent="1" source="_vH6LDevAkohXij_CY47-74" target="_vH6LDevAkohXij_CY47-61" edge="1">
          <mxGeometry width="50" height="50" relative="1" as="geometry">
            <mxPoint x="235" y="444" as="sourcePoint" />
            <mxPoint x="272" y="319" as="targetPoint" />
          </mxGeometry>
        </mxCell>
        <mxCell id="_vH6LDevAkohXij_CY47-61" value="&lt;font color=&quot;#ffffff&quot;&gt;192.168.20.3&lt;/font&gt;" style="text;html=1;whiteSpace=wrap;strokeColor=none;fillColor=none;align=center;verticalAlign=middle;rounded=0;" parent="1" vertex="1">
          <mxGeometry x="216" y="369" width="44" height="37" as="geometry" />
        </mxCell>
        <mxCell id="_vH6LDevAkohXij_CY47-66" value="" style="endArrow=none;html=1;rounded=0;fontSize=12;startSize=8;endSize=8;curved=1;fillColor=#b0e3e6;strokeColor=#1BF1FF;strokeWidth=2;" parent="1" source="_vH6LDevAkohXij_CY47-76" target="_vH6LDevAkohXij_CY47-62" edge="1">
          <mxGeometry width="50" height="50" relative="1" as="geometry">
            <mxPoint x="331" y="445" as="sourcePoint" />
            <mxPoint x="334" y="316" as="targetPoint" />
          </mxGeometry>
        </mxCell>
        <mxCell id="_vH6LDevAkohXij_CY47-62" value="&lt;font color=&quot;#ffffff&quot;&gt;192.168.20.4&lt;/font&gt;&lt;div&gt;&lt;font color=&quot;#ffffff&quot;&gt;&lt;br&gt;&lt;/font&gt;&lt;/div&gt;" style="text;html=1;whiteSpace=wrap;strokeColor=none;fillColor=none;align=center;verticalAlign=middle;rounded=0;" parent="1" vertex="1">
          <mxGeometry x="307" y="385" width="44" height="37" as="geometry" />
        </mxCell>
        <mxCell id="_vH6LDevAkohXij_CY47-69" value="" style="endArrow=none;html=1;rounded=0;fontSize=12;startSize=8;endSize=8;curved=1;fillColor=#b0e3e6;strokeColor=#1BF1FF;strokeWidth=2;" parent="1" source="_vH6LDevAkohXij_CY47-13" target="_vH6LDevAkohXij_CY47-67" edge="1">
          <mxGeometry width="50" height="50" relative="1" as="geometry">
            <mxPoint x="415" y="444" as="sourcePoint" />
            <mxPoint x="402" y="319" as="targetPoint" />
          </mxGeometry>
        </mxCell>
        <mxCell id="_vH6LDevAkohXij_CY47-67" value="&lt;font color=&quot;#ffffff&quot;&gt;192.168.20.5&lt;/font&gt;" style="text;html=1;whiteSpace=wrap;strokeColor=none;fillColor=none;align=center;verticalAlign=middle;rounded=0;" parent="1" vertex="1">
          <mxGeometry x="405.5" y="382" width="44" height="37" as="geometry" />
        </mxCell>
        <mxCell id="_vH6LDevAkohXij_CY47-71" value="" style="endArrow=none;html=1;rounded=0;fontSize=12;startSize=8;endSize=8;curved=1;fillColor=#b0e3e6;strokeColor=#1BF1FF;strokeWidth=2;entryX=0.5;entryY=1;entryDx=0;entryDy=0;" parent="1" source="_vH6LDevAkohXij_CY47-15" target="_vH6LDevAkohXij_CY47-70" edge="1">
          <mxGeometry width="50" height="50" relative="1" as="geometry">
            <mxPoint x="529" y="445" as="sourcePoint" />
            <mxPoint x="467" y="319" as="targetPoint" />
          </mxGeometry>
        </mxCell>
        <mxCell id="_vH6LDevAkohXij_CY47-70" value="&lt;font color=&quot;#ffffff&quot;&gt;192.168.20.6&lt;/font&gt;" style="text;html=1;whiteSpace=wrap;strokeColor=none;fillColor=none;align=center;verticalAlign=middle;rounded=0;" parent="1" vertex="1">
          <mxGeometry x="500" y="379" width="44" height="37" as="geometry" />
        </mxCell>
        <mxCell id="_vH6LDevAkohXij_CY47-73" value="" style="endArrow=none;html=1;rounded=0;fontSize=12;startSize=8;endSize=8;curved=1;fillColor=#b0e3e6;strokeColor=#1BF1FF;strokeWidth=2;entryX=0.5;entryY=1;entryDx=0;entryDy=0;" parent="1" source="_vH6LDevAkohXij_CY47-2" target="_vH6LDevAkohXij_CY47-72" edge="1">
          <mxGeometry width="50" height="50" relative="1" as="geometry">
            <mxPoint x="612" y="444" as="sourcePoint" />
            <mxPoint x="542" y="316" as="targetPoint" />
          </mxGeometry>
        </mxCell>
        <mxCell id="_vH6LDevAkohXij_CY47-72" value="&lt;font color=&quot;#ffffff&quot;&gt;192.168.20.7&lt;/font&gt;&lt;div&gt;&lt;font color=&quot;#ffffff&quot;&gt;&lt;br&gt;&lt;/font&gt;&lt;/div&gt;" style="text;html=1;whiteSpace=wrap;strokeColor=none;fillColor=none;align=center;verticalAlign=middle;rounded=0;" parent="1" vertex="1">
          <mxGeometry x="585" y="382" width="44" height="37" as="geometry" />
        </mxCell>
        <mxCell id="_vH6LDevAkohXij_CY47-75" value="" style="endArrow=none;html=1;rounded=0;fontSize=12;startSize=8;endSize=8;curved=1;fillColor=#b0e3e6;strokeColor=#1BF1FF;strokeWidth=2;" parent="1" source="_vH6LDevAkohXij_CY47-46" target="_vH6LDevAkohXij_CY47-74" edge="1">
          <mxGeometry width="50" height="50" relative="1" as="geometry">
            <mxPoint x="232" y="519" as="sourcePoint" />
            <mxPoint x="237" y="406" as="targetPoint" />
          </mxGeometry>
        </mxCell>
        <mxCell id="_vH6LDevAkohXij_CY47-74" value="" style="points=[];aspect=fixed;html=1;align=center;shadow=0;dashed=0;fillColor=#FF9319;strokeColor=none;shape=mxgraph.alibaba_cloud.waf_web_application_firewall;" parent="1" vertex="1">
          <mxGeometry x="203.8" y="441" width="49.199999999999996" height="43.199999999999996" as="geometry" />
        </mxCell>
        <mxCell id="_vH6LDevAkohXij_CY47-77" value="" style="endArrow=none;html=1;rounded=0;fontSize=12;startSize=8;endSize=8;curved=1;fillColor=#b0e3e6;strokeColor=#1BF1FF;strokeWidth=2;" parent="1" source="_vH6LDevAkohXij_CY47-6" target="_vH6LDevAkohXij_CY47-76" edge="1">
          <mxGeometry width="50" height="50" relative="1" as="geometry">
            <mxPoint x="335" y="520" as="sourcePoint" />
            <mxPoint x="330" y="422" as="targetPoint" />
          </mxGeometry>
        </mxCell>
        <mxCell id="_vH6LDevAkohXij_CY47-76" value="" style="points=[];aspect=fixed;html=1;align=center;shadow=0;dashed=0;fillColor=#FF9319;strokeColor=none;shape=mxgraph.alibaba_cloud.waf_web_application_firewall;" parent="1" vertex="1">
          <mxGeometry x="307" y="445" width="49.199999999999996" height="43.199999999999996" as="geometry" />
        </mxCell>
        <mxCell id="_vH6LDevAkohXij_CY47-78" value="" style="sketch=0;outlineConnect=0;dashed=0;verticalLabelPosition=bottom;verticalAlign=top;align=center;html=1;fontSize=12;fontStyle=0;aspect=fixed;pointerEvents=1;shape=mxgraph.aws4.traditional_server;fillColor=#b0e3e6;strokeColor=#0e8088;" parent="1" vertex="1">
          <mxGeometry x="724" y="460" width="47.88" height="83" as="geometry" />
        </mxCell>
        <mxCell id="_vH6LDevAkohXij_CY47-79" value="" style="endArrow=none;html=1;rounded=0;fontSize=12;startSize=8;endSize=8;curved=1;fillColor=#b0e3e6;strokeColor=#1BF1FF;strokeWidth=2;entryX=0.5;entryY=1;entryDx=0;entryDy=0;" parent="1" source="_vH6LDevAkohXij_CY47-81" target="_vH6LDevAkohXij_CY47-84" edge="1">
          <mxGeometry width="50" height="50" relative="1" as="geometry">
            <mxPoint x="206" y="458" as="sourcePoint" />
            <mxPoint x="653.1298701298701" y="316" as="targetPoint" />
          </mxGeometry>
        </mxCell>
        <mxCell id="_vH6LDevAkohXij_CY47-81" value="&lt;font color=&quot;#ffffff&quot;&gt;192.168.20.8&lt;/font&gt;&lt;div&gt;&lt;font color=&quot;#ffffff&quot;&gt;&lt;br&gt;&lt;/font&gt;&lt;/div&gt;" style="text;html=1;whiteSpace=wrap;strokeColor=none;fillColor=none;align=center;verticalAlign=middle;rounded=0;" parent="1" vertex="1">
          <mxGeometry x="699" y="398" width="44" height="37" as="geometry" />
        </mxCell>
        <mxCell id="_vH6LDevAkohXij_CY47-83" value="" style="endArrow=none;html=1;rounded=0;fontSize=12;startSize=8;endSize=8;curved=1;fillColor=#b0e3e6;strokeColor=#1BF1FF;strokeWidth=2;exitX=0.974;exitY=0.764;exitDx=0;exitDy=0;exitPerimeter=0;entryX=0;entryY=0.25;entryDx=0;entryDy=0;" parent="1" source="_vH6LDevAkohXij_CY47-8" target="_vH6LDevAkohXij_CY47-84" edge="1">
          <mxGeometry width="50" height="50" relative="1" as="geometry">
            <mxPoint x="495" y="248" as="sourcePoint" />
            <mxPoint x="628" y="286" as="targetPoint" />
          </mxGeometry>
        </mxCell>
        <mxCell id="_vH6LDevAkohXij_CY47-84" value="&lt;font color=&quot;#ffffff&quot;&gt;Puerto&amp;nbsp;&lt;/font&gt;&lt;div&gt;&lt;font color=&quot;#ffffff&quot;&gt;3000&lt;/font&gt;&lt;/div&gt;" style="text;html=1;whiteSpace=wrap;strokeColor=none;fillColor=none;align=center;verticalAlign=middle;rounded=0;" parent="1" vertex="1">
          <mxGeometry x="595" y="286" width="60" height="30" as="geometry" />
        </mxCell>
        <mxCell id="_vH6LDevAkohXij_CY47-87" value="" style="sketch=0;outlineConnect=0;dashed=0;verticalLabelPosition=bottom;verticalAlign=top;align=center;html=1;fontSize=12;fontStyle=0;aspect=fixed;pointerEvents=1;shape=mxgraph.aws4.traditional_server;fillColor=#b0e3e6;strokeColor=#0e8088;" parent="1" vertex="1">
          <mxGeometry x="12" y="444" width="45" height="78" as="geometry" />
        </mxCell>
        <mxCell id="_vH6LDevAkohXij_CY47-88" value="" style="endArrow=none;html=1;rounded=0;fontSize=12;startSize=8;endSize=8;curved=1;fillColor=#b0e3e6;strokeColor=#1BF1FF;strokeWidth=2;entryX=0.08;entryY=1;entryDx=0;entryDy=0;entryPerimeter=0;" parent="1" source="_vH6LDevAkohXij_CY47-90" target="_vH6LDevAkohXij_CY47-89" edge="1">
          <mxGeometry width="50" height="50" relative="1" as="geometry">
            <mxPoint x="22" y="453" as="sourcePoint" />
            <mxPoint x="127" y="261" as="targetPoint" />
          </mxGeometry>
        </mxCell>
        <mxCell id="_vH6LDevAkohXij_CY47-89" value="&lt;font color=&quot;#ffffff&quot;&gt;Puerto 53&lt;/font&gt;" style="text;html=1;whiteSpace=wrap;strokeColor=none;fillColor=none;align=center;verticalAlign=middle;rounded=0;" parent="1" vertex="1">
          <mxGeometry x="95" y="274" width="44" height="37" as="geometry" />
        </mxCell>
        <mxCell id="_vH6LDevAkohXij_CY47-90" value="&lt;font color=&quot;#ffffff&quot;&gt;192.168.20.10&lt;/font&gt;&lt;div&gt;&lt;font color=&quot;#ffffff&quot;&gt;&lt;br&gt;&lt;/font&gt;&lt;/div&gt;" style="text;html=1;whiteSpace=wrap;strokeColor=none;fillColor=none;align=center;verticalAlign=middle;rounded=0;" parent="1" vertex="1">
          <mxGeometry x="35" y="368" width="44" height="37" as="geometry" />
        </mxCell>
        <mxCell id="_vH6LDevAkohXij_CY47-91" value="" style="endArrow=none;html=1;rounded=0;fontSize=12;startSize=8;endSize=8;curved=1;fillColor=#b0e3e6;strokeColor=#1BF1FF;strokeWidth=2;" parent="1" source="_vH6LDevAkohXij_CY47-87" target="_vH6LDevAkohXij_CY47-90" edge="1">
          <mxGeometry width="50" height="50" relative="1" as="geometry">
            <mxPoint x="79" y="383" as="sourcePoint" />
            <mxPoint x="111" y="326" as="targetPoint" />
          </mxGeometry>
        </mxCell>
        <mxCell id="_vH6LDevAkohXij_CY47-92" value="" style="endArrow=none;html=1;rounded=0;fontSize=12;startSize=8;endSize=8;curved=1;fillColor=#b0e3e6;strokeColor=#1BF1FF;strokeWidth=2;entryX=0;entryY=0.5;entryDx=0;entryDy=0;entryPerimeter=0;exitX=0.5;exitY=0;exitDx=0;exitDy=0;" parent="1" source="_vH6LDevAkohXij_CY47-89" target="_vH6LDevAkohXij_CY47-8" edge="1">
          <mxGeometry width="50" height="50" relative="1" as="geometry">
            <mxPoint x="90" y="371" as="sourcePoint" />
            <mxPoint x="122" y="314" as="targetPoint" />
          </mxGeometry>
        </mxCell>
        <mxCell id="_vH6LDevAkohXij_CY47-93" value="&lt;font color=&quot;#ffffff&quot;&gt;Servidor DNS&lt;/font&gt;" style="text;html=1;whiteSpace=wrap;strokeColor=none;fillColor=none;align=center;verticalAlign=middle;rounded=0;" parent="1" vertex="1">
          <mxGeometry x="10" y="544" width="60" height="30" as="geometry" />
        </mxCell>
        <mxCell id="_vH6LDevAkohXij_CY47-94" value="" style="endArrow=none;html=1;rounded=0;fontSize=12;startSize=8;endSize=8;curved=1;fillColor=#b0e3e6;strokeColor=#1BF1FF;strokeWidth=2;" parent="1" edge="1">
          <mxGeometry width="50" height="50" relative="1" as="geometry">
            <mxPoint x="748" y="451" as="sourcePoint" />
            <mxPoint x="723" y="416" as="targetPoint" />
          </mxGeometry>
        </mxCell>
        <mxCell id="_vH6LDevAkohXij_CY47-96" value="&lt;font color=&quot;#ffffff&quot;&gt;Servidor de Monitoreo&lt;/font&gt;" style="text;html=1;whiteSpace=wrap;strokeColor=none;fillColor=none;align=center;verticalAlign=middle;rounded=0;" parent="1" vertex="1">
          <mxGeometry x="692.44" y="550" width="117" height="30" as="geometry" />
        </mxCell>
        <mxCell id="_vH6LDevAkohXij_CY47-97" value="" style="sketch=0;outlineConnect=0;fontColor=#232F3E;gradientColor=none;fillColor=#F9FFFC;strokeColor=none;dashed=0;verticalLabelPosition=bottom;verticalAlign=top;align=center;html=1;fontSize=12;fontStyle=0;aspect=fixed;pointerEvents=1;shape=mxgraph.aws4.router;" parent="1" vertex="1">
          <mxGeometry x="-281" y="452" width="78" height="78" as="geometry" />
        </mxCell>
        <mxCell id="_vH6LDevAkohXij_CY47-98" value="" style="endArrow=none;html=1;rounded=0;fontSize=12;startSize=8;endSize=8;curved=1;fillColor=#b0e3e6;strokeColor=#1BF1FF;strokeWidth=2;exitX=0;exitY=0.5;exitDx=0;exitDy=0;" parent="1" source="_vH6LDevAkohXij_CY47-100" target="_vH6LDevAkohXij_CY47-97" edge="1">
          <mxGeometry width="50" height="50" relative="1" as="geometry">
            <mxPoint x="-16" y="879" as="sourcePoint" />
            <mxPoint x="61" y="843" as="targetPoint" />
            <Array as="points">
              <mxPoint x="-200" y="51" />
              <mxPoint x="-130" y="211" />
            </Array>
          </mxGeometry>
        </mxCell>
        <mxCell id="_vH6LDevAkohXij_CY47-101" value="" style="endArrow=none;html=1;rounded=0;fontSize=12;startSize=8;endSize=8;curved=1;fillColor=#b0e3e6;strokeColor=#1BF1FF;strokeWidth=2;exitX=0.5;exitY=0;exitDx=0;exitDy=0;" parent="1" source="_vH6LDevAkohXij_CY47-59" target="_vH6LDevAkohXij_CY47-100" edge="1">
          <mxGeometry width="50" height="50" relative="1" as="geometry">
            <mxPoint x="307" y="282" as="sourcePoint" />
            <mxPoint x="86" y="-89" as="targetPoint" />
          </mxGeometry>
        </mxCell>
        <mxCell id="_vH6LDevAkohXij_CY47-100" value="&lt;font style=&quot;color: rgb(255, 255, 255);&quot;&gt;&lt;font style=&quot;color: rgb(255, 255, 255);&quot;&gt;DMZ&amp;nbsp;&lt;/font&gt;&lt;br style=&quot;color: rgb(26, 26, 26);&quot;&gt;&lt;font style=&quot;color: rgb(255, 255, 255);&quot;&gt;iface= dmz&lt;/font&gt;&lt;br style=&quot;color: rgb(26, 26, 26);&quot;&gt;&lt;font style=&quot;&quot;&gt;&lt;span style=&quot;font-size: 11px; text-align: left;&quot;&gt;&lt;font style=&quot;color: rgb(235, 235, 235);&quot;&gt;MAC:&amp;nbsp;63:f7:28:cb:ee:13&lt;br&gt;&lt;/font&gt;&lt;/span&gt;&lt;font style=&quot;color: rgb(235, 235, 235);&quot;&gt;Gw: 192.168.20.1&amp;nbsp;&lt;/font&gt;&lt;/font&gt;&lt;/font&gt;" style="text;html=1;whiteSpace=wrap;strokeColor=#00FFFF;fillColor=none;align=center;verticalAlign=middle;rounded=0;" parent="1" vertex="1">
          <mxGeometry x="150" y="84" width="124" height="54" as="geometry" />
        </mxCell>
        <mxCell id="_vH6LDevAkohXij_CY47-102" value="&lt;font style=&quot;color: rgb(255, 255, 255);&quot;&gt;Router-Firewall&lt;br&gt;&amp;nbsp;Pfsense 2.7.2&amp;nbsp;&lt;/font&gt;" style="text;html=1;whiteSpace=wrap;align=center;verticalAlign=middle;rounded=0;" parent="1" vertex="1">
          <mxGeometry x="-288" y="544" width="97" height="30" as="geometry" />
        </mxCell>
        <mxCell id="_vH6LDevAkohXij_CY47-103" value="Dhcp&lt;br&gt;PoolLan&lt;br&gt;192.168.10.80-192.168.10.150&lt;br&gt;Dns: 1.1.1.1/8.8.8.8&lt;br&gt;Gw:192.168.10.1&lt;br&gt;&lt;div&gt;&lt;br&gt;&lt;/div&gt;" style="shape=cylinder3;whiteSpace=wrap;html=1;boundedLbl=1;backgroundOutline=1;size=15;fillColor=#520000;strokeColor=#36393d;fontSize=8;gradientColor=none;fontColor=#FFFFFF;labelBackgroundColor=none;textShadow=1;" parent="1" vertex="1">
          <mxGeometry x="-940" y="140.5" width="99" height="113.5" as="geometry" />
        </mxCell>
        <mxCell id="_vH6LDevAkohXij_CY47-105" value="&lt;span style=&quot;color: rgb(255, 255, 255);&quot;&gt;LAN 192.168.10.0/24&lt;/span&gt;" style="strokeWidth=2;html=1;shape=mxgraph.flowchart.direct_data;whiteSpace=wrap;fillColor=#12100C;strokeColor=#FF3333;fillStyle=solid;" parent="1" vertex="1">
          <mxGeometry x="-827" y="140.5" width="309" height="41" as="geometry" />
        </mxCell>
        <mxCell id="_vH6LDevAkohXij_CY47-108" value="" style="endArrow=none;html=1;rounded=0;fontSize=12;startSize=8;endSize=8;curved=1;fontColor=#FF0F0F;strokeColor=#FF0000;strokeWidth=2;" parent="1" source="_vH6LDevAkohXij_CY47-109" target="_vH6LDevAkohXij_CY47-97" edge="1">
          <mxGeometry width="50" height="50" relative="1" as="geometry">
            <mxPoint x="-580" y="381" as="sourcePoint" />
            <mxPoint x="-530" y="331" as="targetPoint" />
            <Array as="points">
              <mxPoint x="-263" y="167" />
            </Array>
          </mxGeometry>
        </mxCell>
        <mxCell id="_vH6LDevAkohXij_CY47-109" value="&lt;font style=&quot;color: rgb(255, 255, 255);&quot;&gt;LAN&lt;br style=&quot;color: rgb(26, 26, 26);&quot;&gt;&lt;font style=&quot;color: rgb(255, 255, 255);&quot;&gt;iface= lan&lt;/font&gt;&lt;br style=&quot;color: rgb(26, 26, 26);&quot;&gt;&lt;font style=&quot;&quot;&gt;&lt;span style=&quot;font-size: 11px; text-align: left;&quot;&gt;&lt;font style=&quot;color: rgb(235, 235, 235);&quot;&gt;MAC:&amp;nbsp;63:f7:28:cb:ee:13&lt;br&gt;&lt;/font&gt;&lt;/span&gt;&lt;font style=&quot;color: rgb(235, 235, 235);&quot;&gt;Gw: 192.168.10.1&amp;nbsp;&lt;/font&gt;&lt;/font&gt;&lt;/font&gt;" style="text;html=1;whiteSpace=wrap;strokeColor=#FF3333;fillColor=none;align=center;verticalAlign=middle;rounded=0;" parent="1" vertex="1">
          <mxGeometry x="-474" y="134" width="124" height="54" as="geometry" />
        </mxCell>
        <mxCell id="_vH6LDevAkohXij_CY47-110" value="" style="endArrow=none;html=1;rounded=0;fontSize=12;startSize=8;endSize=8;curved=1;entryX=0;entryY=0.5;entryDx=0;entryDy=0;strokeColor=#CC0000;strokeWidth=2;" parent="1" source="_vH6LDevAkohXij_CY47-105" target="_vH6LDevAkohXij_CY47-109" edge="1">
          <mxGeometry width="50" height="50" relative="1" as="geometry">
            <mxPoint x="-478" y="212" as="sourcePoint" />
            <mxPoint x="-428" y="162" as="targetPoint" />
          </mxGeometry>
        </mxCell>
        <mxCell id="_vH6LDevAkohXij_CY47-111" value="DHCP PoolLan&lt;br&gt;192.168.10.0/24&lt;div&gt;&lt;br&gt;&lt;/div&gt;" style="text;html=1;whiteSpace=wrap;strokeColor=none;fillColor=none;align=center;verticalAlign=middle;rounded=0;fontColor=#FFFFFF;" parent="1" vertex="1">
          <mxGeometry x="-717" y="245" width="94.5" height="57" as="geometry" />
        </mxCell>
        <mxCell id="_vH6LDevAkohXij_CY47-112" value="" style="endArrow=none;html=1;rounded=0;fontSize=12;startSize=8;endSize=8;curved=1;fontColor=#FF0000;strokeColor=#FF0000;strokeWidth=2;exitX=0.5;exitY=0;exitDx=0;exitDy=0;" parent="1" source="_vH6LDevAkohXij_CY47-111" target="_vH6LDevAkohXij_CY47-105" edge="1">
          <mxGeometry width="50" height="50" relative="1" as="geometry">
            <mxPoint x="-655" y="253" as="sourcePoint" />
            <mxPoint x="-503" y="162" as="targetPoint" />
          </mxGeometry>
        </mxCell>
        <mxCell id="_vH6LDevAkohXij_CY47-113" value="DHCP PoolLan&lt;br&gt;192.168.10.0/24&lt;div&gt;&lt;br&gt;&lt;/div&gt;" style="text;html=1;whiteSpace=wrap;strokeColor=none;fillColor=none;align=center;verticalAlign=middle;rounded=0;fontColor=#FFFFFF;" parent="1" vertex="1">
          <mxGeometry x="-592" y="287.5" width="83" height="49.5" as="geometry" />
        </mxCell>
        <mxCell id="_vH6LDevAkohXij_CY47-114" value="" style="endArrow=none;html=1;rounded=0;fontSize=12;startSize=8;endSize=8;curved=1;fontColor=#FF0000;strokeColor=#FF0000;strokeWidth=2;entryX=0.874;entryY=1.015;entryDx=0;entryDy=0;entryPerimeter=0;" parent="1" source="_vH6LDevAkohXij_CY47-113" target="_vH6LDevAkohXij_CY47-105" edge="1">
          <mxGeometry width="50" height="50" relative="1" as="geometry">
            <mxPoint x="-650" y="255" as="sourcePoint" />
            <mxPoint x="-650" y="192" as="targetPoint" />
          </mxGeometry>
        </mxCell>
        <mxCell id="_vH6LDevAkohXij_CY47-115" value="DHCP PoolLan&lt;br&gt;192.168.10.0/24&lt;div&gt;&lt;br&gt;&lt;/div&gt;" style="text;html=1;whiteSpace=wrap;strokeColor=none;fillColor=none;align=center;verticalAlign=middle;rounded=0;fontColor=#FFFFFF;" parent="1" vertex="1">
          <mxGeometry x="-808" y="282" width="60" height="49" as="geometry" />
        </mxCell>
        <mxCell id="_vH6LDevAkohXij_CY47-116" value="" style="endArrow=none;html=1;rounded=0;fontSize=12;startSize=8;endSize=8;curved=1;fontColor=#FF0000;strokeColor=#FF0000;strokeWidth=2;entryX=0.162;entryY=0.988;entryDx=0;entryDy=0;entryPerimeter=0;dashed=1;" parent="1" source="_vH6LDevAkohXij_CY47-115" target="_vH6LDevAkohXij_CY47-105" edge="1">
          <mxGeometry width="50" height="50" relative="1" as="geometry">
            <mxPoint x="-777" y="271" as="sourcePoint" />
            <mxPoint x="-672" y="220" as="targetPoint" />
          </mxGeometry>
        </mxCell>
        <mxCell id="_vH6LDevAkohXij_CY47-117" value="" style="fontColor=#0066CC;verticalAlign=top;verticalLabelPosition=bottom;labelPosition=center;align=center;html=1;outlineConnect=0;fillColor=#191919;strokeColor=#CC0000;gradientColor=none;gradientDirection=north;strokeWidth=2;shape=mxgraph.networks.pc;" parent="1" vertex="1">
          <mxGeometry x="-714.5" y="337" width="92" height="66" as="geometry" />
        </mxCell>
        <mxCell id="_vH6LDevAkohXij_CY47-118" value="" style="fontColor=#0066CC;verticalAlign=top;verticalLabelPosition=bottom;labelPosition=center;align=center;html=1;outlineConnect=0;fillColor=#191919;strokeColor=#CC0000;gradientColor=none;gradientDirection=north;strokeWidth=2;shape=mxgraph.networks.pc;" parent="1" vertex="1">
          <mxGeometry x="-581" y="365" width="92" height="66" as="geometry" />
        </mxCell>
        <mxCell id="_vH6LDevAkohXij_CY47-119" value="" style="endArrow=none;html=1;rounded=0;fontSize=12;startSize=8;endSize=8;curved=1;fontColor=#FF0000;strokeColor=#FF0000;strokeWidth=2;entryX=0.5;entryY=1;entryDx=0;entryDy=0;" parent="1" source="_vH6LDevAkohXij_CY47-117" target="_vH6LDevAkohXij_CY47-111" edge="1">
          <mxGeometry width="50" height="50" relative="1" as="geometry">
            <mxPoint x="-657" y="258" as="sourcePoint" />
            <mxPoint x="-659" y="194" as="targetPoint" />
          </mxGeometry>
        </mxCell>
        <mxCell id="_vH6LDevAkohXij_CY47-120" value="" style="endArrow=none;html=1;rounded=0;fontSize=12;startSize=8;endSize=8;curved=1;fontColor=#FF0000;strokeColor=#FF0000;strokeWidth=2;entryX=0.5;entryY=1;entryDx=0;entryDy=0;" parent="1" source="_vH6LDevAkohXij_CY47-118" target="_vH6LDevAkohXij_CY47-113" edge="1">
          <mxGeometry width="50" height="50" relative="1" as="geometry">
            <mxPoint x="-644" y="351" as="sourcePoint" />
            <mxPoint x="-645" y="316" as="targetPoint" />
          </mxGeometry>
        </mxCell>
        <mxCell id="_vH6LDevAkohXij_CY47-122" value="" style="shape=mxgraph.networks2.icon;aspect=fixed;fillColor=#000000;strokeColor=#FF3333;gradientColor=#000000;network2IconShadow=1;network2bgFillColor=none;labelPosition=center;verticalLabelPosition=bottom;align=center;verticalAlign=top;network2Icon=mxgraph.networks2.laptop;network2IconW=1;network2IconH=0.5734;" parent="1" vertex="1">
          <mxGeometry x="-834.62" y="357.99999999999994" width="86.62" height="49.67" as="geometry" />
        </mxCell>
        <mxCell id="_vH6LDevAkohXij_CY47-123" value="" style="endArrow=none;html=1;rounded=0;fontSize=12;startSize=8;endSize=8;curved=1;fontColor=#FF0000;strokeColor=#FF0000;strokeWidth=2;entryX=0.423;entryY=0.977;entryDx=0;entryDy=0;entryPerimeter=0;dashed=1;exitX=0.557;exitY=0.097;exitDx=0;exitDy=0;exitPerimeter=0;" parent="1" source="_vH6LDevAkohXij_CY47-122" target="_vH6LDevAkohXij_CY47-115" edge="1">
          <mxGeometry width="50" height="50" relative="1" as="geometry">
            <mxPoint x="-771" y="365" as="sourcePoint" />
            <mxPoint x="-770" y="264" as="targetPoint" />
          </mxGeometry>
        </mxCell>
        <mxCell id="_vH6LDevAkohXij_CY47-124" value="&lt;span style=&quot;color: rgb(255, 255, 255);&quot;&gt;Invitados 192.168.5.0/24&lt;/span&gt;" style="strokeWidth=2;html=1;shape=mxgraph.flowchart.direct_data;whiteSpace=wrap;fillColor=#12100C;strokeColor=#FFD966;fillStyle=solid;" parent="1" vertex="1">
          <mxGeometry x="-932" y="557.7" width="309" height="41" as="geometry" />
        </mxCell>
        <mxCell id="_vH6LDevAkohXij_CY47-127" value="DHCP PoolInvitados&lt;br&gt;192.168.5.0/24&lt;div&gt;&lt;br&gt;&lt;/div&gt;" style="text;html=1;whiteSpace=wrap;strokeColor=#FFD966;fillColor=none;align=center;verticalAlign=middle;rounded=0;fontColor=#FFFFFF;dashed=1;" parent="1" vertex="1">
          <mxGeometry x="-954" y="692.8" width="111" height="68.2" as="geometry" />
        </mxCell>
        <mxCell id="_vH6LDevAkohXij_CY47-128" value="" style="endArrow=none;html=1;rounded=0;fontSize=12;startSize=8;endSize=8;curved=1;fontColor=#FF0000;strokeColor=#FFD966;strokeWidth=2;entryX=0.463;entryY=0.925;entryDx=0;entryDy=0;entryPerimeter=0;dashed=1;" parent="1" source="_vH6LDevAkohXij_CY47-127" target="_vH6LDevAkohXij_CY47-124" edge="1">
          <mxGeometry width="50" height="50" relative="1" as="geometry">
            <mxPoint x="-755" y="672.2" as="sourcePoint" />
            <mxPoint x="-755" y="609.2" as="targetPoint" />
          </mxGeometry>
        </mxCell>
        <mxCell id="_vH6LDevAkohXij_CY47-130" value="" style="endArrow=none;html=1;rounded=0;fontSize=12;startSize=8;endSize=8;curved=1;strokeColor=#FFD966;strokeWidth=2;fillColor=#ffff88;" parent="1" source="_vH6LDevAkohXij_CY47-126" target="_vH6LDevAkohXij_CY47-124" edge="1">
          <mxGeometry width="50" height="50" relative="1" as="geometry">
            <mxPoint x="-477" y="559" as="sourcePoint" />
            <mxPoint x="-427" y="509" as="targetPoint" />
            <Array as="points" />
          </mxGeometry>
        </mxCell>
        <mxCell id="_vH6LDevAkohXij_CY47-131" value="" style="endArrow=none;html=1;rounded=0;fontSize=12;startSize=8;endSize=8;curved=1;strokeColor=#FFD966;strokeWidth=2;fillColor=#ffff88;" parent="1" source="_vH6LDevAkohXij_CY47-97" target="_vH6LDevAkohXij_CY47-126" edge="1">
          <mxGeometry width="50" height="50" relative="1" as="geometry">
            <mxPoint x="-281" y="507" as="sourcePoint" />
            <mxPoint x="-623" y="578" as="targetPoint" />
            <Array as="points">
              <mxPoint x="-304" y="533" />
            </Array>
          </mxGeometry>
        </mxCell>
        <mxCell id="_vH6LDevAkohXij_CY47-126" value="&lt;font style=&quot;color: rgb(255, 255, 255);&quot;&gt;Invitado&lt;br style=&quot;color: rgb(26, 26, 26);&quot;&gt;&lt;font style=&quot;color: rgb(255, 255, 255);&quot;&gt;iface= invitado&lt;/font&gt;&lt;br style=&quot;color: rgb(26, 26, 26);&quot;&gt;&lt;font style=&quot;&quot;&gt;&lt;span style=&quot;font-size: 11px; text-align: left;&quot;&gt;&lt;font style=&quot;color: rgb(235, 235, 235);&quot;&gt;MAC:&amp;nbsp;63:f7:28:cb:ee:13&lt;br&gt;&lt;/font&gt;&lt;/span&gt;&lt;font style=&quot;color: rgb(235, 235, 235);&quot;&gt;Gw: 192.168.5.1&amp;nbsp;&lt;/font&gt;&lt;/font&gt;&lt;/font&gt;" style="text;html=1;whiteSpace=wrap;strokeColor=#FFD966;fillColor=none;align=center;verticalAlign=middle;rounded=0;" parent="1" vertex="1">
          <mxGeometry x="-501" y="501" width="124" height="63.5" as="geometry" />
        </mxCell>
        <mxCell id="_vH6LDevAkohXij_CY47-132" value="" style="endArrow=none;html=1;rounded=0;fontSize=12;startSize=8;endSize=8;curved=1;fontColor=#FF0000;strokeColor=#FFD966;strokeWidth=2;exitX=0.926;exitY=0.084;exitDx=0;exitDy=0;exitPerimeter=0;dashed=1;" parent="1" source="_vH6LDevAkohXij_CY47-146" target="_vH6LDevAkohXij_CY47-127" edge="1">
          <mxGeometry width="50" height="50" relative="1" as="geometry">
            <mxPoint x="-682.1972443799855" y="825" as="sourcePoint" />
            <mxPoint x="-565" y="741" as="targetPoint" />
          </mxGeometry>
        </mxCell>
        <mxCell id="_vH6LDevAkohXij_CY47-133" value="" style="sketch=0;outlineConnect=0;dashed=0;verticalLabelPosition=bottom;verticalAlign=top;align=center;html=1;fontSize=12;fontStyle=0;aspect=fixed;pointerEvents=1;shape=mxgraph.aws4.traditional_server;fillColor=#b0e3e6;strokeColor=#0e8088;" parent="1" vertex="1">
          <mxGeometry x="-62" y="445" width="47.88" height="83" as="geometry" />
        </mxCell>
        <mxCell id="_vH6LDevAkohXij_CY47-136" value="" style="endArrow=none;html=1;rounded=0;fontSize=12;startSize=8;endSize=8;curved=1;fillColor=#b0e3e6;strokeColor=#1BF1FF;strokeWidth=2;entryX=0.034;entryY=0.03;entryDx=0;entryDy=0;entryPerimeter=0;" parent="1" source="_vH6LDevAkohXij_CY47-142" target="_vH6LDevAkohXij_CY47-8" edge="1">
          <mxGeometry width="50" height="50" relative="1" as="geometry">
            <mxPoint x="163" y="285" as="sourcePoint" />
            <mxPoint x="206" y="235" as="targetPoint" />
            <Array as="points" />
          </mxGeometry>
        </mxCell>
        <mxCell id="_vH6LDevAkohXij_CY47-138" value="&lt;font color=&quot;#ffffff&quot;&gt;Balanceador de carga ProxyMysql&lt;/font&gt;" style="text;html=1;whiteSpace=wrap;strokeColor=none;fillColor=none;align=center;verticalAlign=middle;rounded=0;" parent="1" vertex="1">
          <mxGeometry x="-101" y="544" width="118" height="30" as="geometry" />
        </mxCell>
        <mxCell id="_vH6LDevAkohXij_CY47-139" value="" style="sketch=0;outlineConnect=0;dashed=0;verticalLabelPosition=bottom;verticalAlign=top;align=center;html=1;fontSize=12;fontStyle=0;aspect=fixed;pointerEvents=1;shape=mxgraph.aws4.traditional_server;fillColor=#b0e3e6;strokeColor=#0e8088;" parent="1" vertex="1">
          <mxGeometry x="832" y="467" width="47.88" height="83" as="geometry" />
        </mxCell>
        <mxCell id="_vH6LDevAkohXij_CY47-140" value="&lt;font color=&quot;#ffffff&quot;&gt;Balanceador de carga HaProxy&lt;/font&gt;" style="text;html=1;whiteSpace=wrap;strokeColor=none;fillColor=none;align=center;verticalAlign=middle;rounded=0;" parent="1" vertex="1">
          <mxGeometry x="786" y="557.7" width="118" height="30" as="geometry" />
        </mxCell>
        <mxCell id="_vH6LDevAkohXij_CY47-141" value="" style="endArrow=none;html=1;rounded=0;fontSize=12;startSize=8;endSize=8;curved=1;fillColor=#b0e3e6;strokeColor=#1BF1FF;strokeWidth=2;" parent="1" target="_vH6LDevAkohXij_CY47-139" edge="1">
          <mxGeometry width="50" height="50" relative="1" as="geometry">
            <mxPoint x="794" y="327" as="sourcePoint" />
            <mxPoint x="638" y="313" as="targetPoint" />
            <Array as="points">
              <mxPoint x="810" y="296" />
            </Array>
          </mxGeometry>
        </mxCell>
        <mxCell id="_vH6LDevAkohXij_CY47-143" value="" style="endArrow=none;html=1;rounded=0;fontSize=12;startSize=8;endSize=8;curved=1;fillColor=#b0e3e6;strokeColor=#1BF1FF;strokeWidth=2;" parent="1" source="_vH6LDevAkohXij_CY47-154" target="_vH6LDevAkohXij_CY47-142" edge="1">
          <mxGeometry width="50" height="50" relative="1" as="geometry">
            <mxPoint x="-26" y="445" as="sourcePoint" />
            <mxPoint x="194" y="225" as="targetPoint" />
            <Array as="points" />
          </mxGeometry>
        </mxCell>
        <mxCell id="_vH6LDevAkohXij_CY47-142" value="&lt;font color=&quot;#ffffff&quot;&gt;Puerto&lt;br&gt;6033/6032&amp;nbsp;&lt;/font&gt;" style="text;html=1;whiteSpace=wrap;strokeColor=none;fillColor=none;align=center;verticalAlign=middle;rounded=0;" parent="1" vertex="1">
          <mxGeometry x="26" y="231" width="44" height="37" as="geometry" />
        </mxCell>
        <mxCell id="_vH6LDevAkohXij_CY47-145" value="" style="endArrow=none;html=1;rounded=0;fontSize=12;startSize=8;endSize=8;curved=1;fillColor=#b0e3e6;strokeColor=#1BF1FF;strokeWidth=2;exitX=1;exitY=0.5;exitDx=0;exitDy=0;exitPerimeter=0;entryX=0.5;entryY=0;entryDx=0;entryDy=0;" parent="1" source="_vH6LDevAkohXij_CY47-8" target="_vH6LDevAkohXij_CY47-144" edge="1">
          <mxGeometry width="50" height="50" relative="1" as="geometry">
            <mxPoint x="503" y="238" as="sourcePoint" />
            <mxPoint x="847" y="467" as="targetPoint" />
            <Array as="points">
              <mxPoint x="618" y="238" />
            </Array>
          </mxGeometry>
        </mxCell>
        <mxCell id="_vH6LDevAkohXij_CY47-144" value="&lt;font color=&quot;#ffffff&quot;&gt;Puerto&amp;nbsp;&lt;br&gt;80/443&lt;/font&gt;" style="text;html=1;whiteSpace=wrap;strokeColor=none;fillColor=none;align=center;verticalAlign=middle;rounded=0;" parent="1" vertex="1">
          <mxGeometry x="664" y="278.5" width="44" height="37" as="geometry" />
        </mxCell>
        <mxCell id="_vH6LDevAkohXij_CY47-146" value="" style="html=1;verticalLabelPosition=bottom;align=center;labelBackgroundColor=#ffffff;verticalAlign=top;strokeWidth=2;strokeColor=#FFD966;shadow=0;dashed=0;shape=mxgraph.ios7.icons.smartphone;fillColor=#000000;" parent="1" vertex="1">
          <mxGeometry x="-791" y="852" width="38" height="59" as="geometry" />
        </mxCell>
        <mxCell id="_vH6LDevAkohXij_CY47-147" value="Android&lt;br&gt;Celular" style="text;html=1;whiteSpace=wrap;align=center;verticalAlign=middle;rounded=0;fontColor=light-dark(#ffffff, #ededed);" parent="1" vertex="1">
          <mxGeometry x="-802" y="923" width="60" height="30" as="geometry" />
        </mxCell>
        <mxCell id="_vH6LDevAkohXij_CY47-149" value="Dhcp&lt;br&gt;PoolInvitados&lt;br&gt;192.168.5.80-192.168.5.150&lt;br&gt;Dns: 1.1.1.1/8.8.8.8&lt;br&gt;Gw:192.168.5.1&lt;br&gt;&lt;div&gt;&lt;br&gt;&lt;/div&gt;" style="shape=cylinder3;whiteSpace=wrap;html=1;boundedLbl=1;backgroundOutline=1;size=15;fillColor=#665729;strokeColor=#36393d;fontSize=10;gradientColor=none;fontColor=#FFFFFF;labelBackgroundColor=none;textShadow=1;" parent="1" vertex="1">
          <mxGeometry x="-1043" y="523.5" width="99" height="113.5" as="geometry" />
        </mxCell>
        <mxCell id="_vH6LDevAkohXij_CY47-153" value="" style="endArrow=none;html=1;rounded=0;fontSize=12;startSize=8;endSize=8;curved=1;fillColor=#b0e3e6;strokeColor=#1BF1FF;strokeWidth=2;exitX=1;exitY=0.5;exitDx=0;exitDy=0;exitPerimeter=0;" parent="1" source="_vH6LDevAkohXij_CY47-144" target="_vH6LDevAkohXij_CY47-150" edge="1">
          <mxGeometry width="50" height="50" relative="1" as="geometry">
            <mxPoint x="708" y="297" as="sourcePoint" />
            <mxPoint x="847" y="467" as="targetPoint" />
            <Array as="points" />
          </mxGeometry>
        </mxCell>
        <mxCell id="_vH6LDevAkohXij_CY47-150" value="&lt;font color=&quot;#ffffff&quot;&gt;192.168.20.9&lt;/font&gt;&lt;div&gt;&lt;font color=&quot;#ffffff&quot;&gt;&lt;br&gt;&lt;/font&gt;&lt;/div&gt;" style="text;html=1;whiteSpace=wrap;strokeColor=none;fillColor=none;align=center;verticalAlign=middle;rounded=0;" parent="1" vertex="1">
          <mxGeometry x="743" y="325" width="44" height="37" as="geometry" />
        </mxCell>
        <mxCell id="_vH6LDevAkohXij_CY47-155" value="" style="endArrow=none;html=1;rounded=0;fontSize=12;startSize=8;endSize=8;curved=1;fillColor=#b0e3e6;strokeColor=#1BF1FF;strokeWidth=2;" parent="1" source="_vH6LDevAkohXij_CY47-133" target="_vH6LDevAkohXij_CY47-154" edge="1">
          <mxGeometry width="50" height="50" relative="1" as="geometry">
            <mxPoint x="-23" y="445" as="sourcePoint" />
            <mxPoint x="41" y="268" as="targetPoint" />
            <Array as="points" />
          </mxGeometry>
        </mxCell>
        <mxCell id="_vH6LDevAkohXij_CY47-154" value="&lt;font color=&quot;#ffffff&quot;&gt;192.168.20.11&lt;/font&gt;&lt;div&gt;&lt;font color=&quot;#ffffff&quot;&gt;&lt;br&gt;&lt;/font&gt;&lt;/div&gt;" style="text;html=1;whiteSpace=wrap;strokeColor=none;fillColor=none;align=center;verticalAlign=middle;rounded=0;" parent="1" vertex="1">
          <mxGeometry x="-54" y="368" width="44" height="37" as="geometry" />
        </mxCell>
        <mxCell id="_vH6LDevAkohXij_CY47-156" value="Laptop&amp;nbsp;&lt;br&gt;Windows" style="text;html=1;whiteSpace=wrap;strokeColor=none;fillColor=none;align=center;verticalAlign=middle;rounded=0;fontColor=#F2F2F2;" parent="1" vertex="1">
          <mxGeometry x="-821.31" y="413" width="60" height="48" as="geometry" />
        </mxCell>
        <mxCell id="_vH6LDevAkohXij_CY47-157" value="Computadora&lt;br&gt;Oficina - 01" style="text;html=1;whiteSpace=wrap;strokeColor=none;fillColor=none;align=center;verticalAlign=middle;rounded=0;fontColor=#F2F2F2;" parent="1" vertex="1">
          <mxGeometry x="-693" y="413" width="60" height="48" as="geometry" />
        </mxCell>
        <mxCell id="_vH6LDevAkohXij_CY47-158" value="Computadora&lt;br&gt;Oficina - 02" style="text;html=1;whiteSpace=wrap;strokeColor=none;fillColor=none;align=center;verticalAlign=middle;rounded=0;fontColor=#F2F2F2;" parent="1" vertex="1">
          <mxGeometry x="-557" y="426.5" width="60" height="48" as="geometry" />
        </mxCell>
        <mxCell id="_vH6LDevAkohXij_CY47-159" value="" style="endArrow=none;html=1;rounded=0;fontSize=12;startSize=8;endSize=8;curved=1;strokeColor=#F2F2F2;strokeWidth=2;fillColor=#ffff88;fontColor=#CC5151;entryX=0.5;entryY=0;entryDx=0;entryDy=0;entryPerimeter=0;" parent="1" source="_vH6LDevAkohXij_CY47-97" target="_vH6LDevAkohXij_CY47-160" edge="1">
          <mxGeometry width="50" height="50" relative="1" as="geometry">
            <mxPoint x="-230" y="667" as="sourcePoint" />
            <mxPoint x="-266" y="793" as="targetPoint" />
            <Array as="points">
              <mxPoint x="-376" y="657" />
            </Array>
          </mxGeometry>
        </mxCell>
        <mxCell id="_vH6LDevAkohXij_CY47-160" value="&lt;font color=&quot;#ffffff&quot;&gt;&amp;nbsp;WAN&lt;/font&gt;" style="strokeWidth=2;html=1;shape=mxgraph.flowchart.direct_data;whiteSpace=wrap;fillColor=#12100C;strokeColor=#FFFFFF;fillStyle=solid;fontSize=14;" parent="1" vertex="1">
          <mxGeometry x="-528" y="731" width="309" height="41" as="geometry" />
        </mxCell>
        <mxCell id="_vH6LDevAkohXij_CY47-163" value="" style="endArrow=none;html=1;rounded=0;fontSize=12;startSize=8;endSize=8;curved=1;strokeColor=#A500FF;strokeWidth=2;" parent="1" target="_vH6LDevAkohXij_CY47-97" edge="1">
          <mxGeometry width="50" height="50" relative="1" as="geometry">
            <mxPoint x="259" y="746" as="sourcePoint" />
            <mxPoint x="-63" y="689" as="targetPoint" />
            <Array as="points">
              <mxPoint x="-96" y="629" />
            </Array>
          </mxGeometry>
        </mxCell>
        <mxCell id="_vH6LDevAkohXij_CY47-167" value="" style="shape=mxgraph.networks2.icon;aspect=fixed;fillColor=#eeeeee;strokeColor=#36393d;network2IconShadow=1;network2bgFillColor=none;labelPosition=center;verticalLabelPosition=bottom;align=center;verticalAlign=top;network2Icon=mxgraph.networks2.internet;network2IconXOffset=0.0012;network2IconYOffset=0.0035;network2IconW=0.9677;network2IconH=0.7722;" parent="1" vertex="1">
          <mxGeometry x="-254" y="874.39" width="98.51" height="78.61" as="geometry" />
        </mxCell>
        <mxCell id="_vH6LDevAkohXij_CY47-169" value="" style="endArrow=none;html=1;rounded=0;fontSize=12;startSize=8;endSize=8;curved=1;strokeColor=#FFFFFF;strokeWidth=2;exitX=0.449;exitY=0.048;exitDx=0;exitDy=0;exitPerimeter=0;" parent="1" source="_vH6LDevAkohXij_CY47-167" target="_vH6LDevAkohXij_CY47-160" edge="1">
          <mxGeometry width="50" height="50" relative="1" as="geometry">
            <mxPoint x="-182" y="667" as="sourcePoint" />
            <mxPoint x="-132" y="617" as="targetPoint" />
            <Array as="points">
              <mxPoint x="-202" y="805" />
            </Array>
          </mxGeometry>
        </mxCell>
        <mxCell id="_vH6LDevAkohXij_CY47-170" value="&lt;font color=&quot;#ffffff&quot;&gt;&amp;nbsp;WAN&lt;/font&gt;" style="strokeWidth=2;html=1;shape=mxgraph.flowchart.direct_data;whiteSpace=wrap;fillColor=#12100C;strokeColor=#F205FF;fillStyle=solid;fontSize=14;" parent="1" vertex="1">
          <mxGeometry x="-239" y="1043.5" width="309" height="41" as="geometry" />
        </mxCell>
        <mxCell id="_vH6LDevAkohXij_CY47-171" value="" style="endArrow=none;html=1;rounded=0;fontSize=12;startSize=8;endSize=8;curved=1;strokeColor=#F205FF;strokeWidth=2;entryX=0.467;entryY=0.02;entryDx=0;entryDy=0;entryPerimeter=0;" parent="1" source="_vH6LDevAkohXij_CY47-167" target="_vH6LDevAkohXij_CY47-170" edge="1">
          <mxGeometry width="50" height="50" relative="1" as="geometry">
            <mxPoint x="-370" y="986" as="sourcePoint" />
            <mxPoint x="-372" y="837" as="targetPoint" />
            <Array as="points">
              <mxPoint x="-202" y="1023" />
            </Array>
          </mxGeometry>
        </mxCell>
        <mxCell id="_vH6LDevAkohXij_CY47-172" value="&lt;font color=&quot;#ffffff&quot;&gt;OpenVpn&amp;nbsp;&lt;/font&gt;&lt;span style=&quot;background-color: transparent;&quot;&gt;&lt;font color=&quot;#ffffff&quot;&gt;10.8.0.0/24&lt;/font&gt;&lt;/span&gt;" style="strokeWidth=2;html=1;shape=mxgraph.flowchart.direct_data;whiteSpace=wrap;fillColor=#12100C;strokeColor=#A500FF;fillStyle=solid;fontSize=15;" parent="1" vertex="1">
          <mxGeometry x="276" y="731" width="309" height="41" as="geometry" />
        </mxCell>
        <mxCell id="_vH6LDevAkohXij_CY47-173" value="" style="shape=mxgraph.networks2.icon;aspect=fixed;fillColor=#000000;strokeColor=#F205FF;gradientColor=#000000;network2IconShadow=1;network2bgFillColor=none;labelPosition=center;verticalLabelPosition=bottom;align=center;verticalAlign=top;network2Icon=mxgraph.networks2.laptop;network2IconW=1;network2IconH=0.5734;" parent="1" vertex="1">
          <mxGeometry x="405.4999999999999" y="1127" width="86.62" height="49.67" as="geometry" />
        </mxCell>
        <mxCell id="_vH6LDevAkohXij_CY47-174" value="Laptop&amp;nbsp;&lt;br&gt;iOS" style="text;html=1;whiteSpace=wrap;strokeColor=none;fillColor=none;align=center;verticalAlign=middle;rounded=0;fontColor=#F2F2F2;" parent="1" vertex="1">
          <mxGeometry x="418.80999999999995" y="1174" width="60" height="48" as="geometry" />
        </mxCell>
        <mxCell id="_vH6LDevAkohXij_CY47-175" value="" style="html=1;verticalLabelPosition=bottom;align=center;labelBackgroundColor=#ffffff;verticalAlign=top;strokeWidth=2;strokeColor=#F205FF;shadow=0;dashed=0;shape=mxgraph.ios7.icons.smartphone;fillColor=#000000;" parent="1" vertex="1">
          <mxGeometry x="419.69" y="1001" width="38" height="59" as="geometry" />
        </mxCell>
        <mxCell id="_vH6LDevAkohXij_CY47-176" value="Iphone&lt;br&gt;Celular" style="text;html=1;whiteSpace=wrap;align=center;verticalAlign=middle;rounded=0;fontColor=light-dark(#ffffff, #ededed);" parent="1" vertex="1">
          <mxGeometry x="413" y="1064" width="60" height="30" as="geometry" />
        </mxCell>
        <mxCell id="_vH6LDevAkohXij_CY47-177" value="Dhcp&lt;br&gt;PoolVPN&lt;br&gt;10.8.0.80 - 10.8.0.150&lt;br&gt;Dns: 1.1.1.1/8.8.8.8&lt;br&gt;Gw:10.8.0.1&lt;br&gt;&lt;div&gt;&lt;br&gt;&lt;/div&gt;" style="shape=cylinder3;whiteSpace=wrap;html=1;boundedLbl=1;backgroundOutline=1;size=15;fillColor=#4B0075;strokeColor=#36393d;fontSize=8;gradientColor=none;fontColor=#FFFFFF;labelBackgroundColor=none;textShadow=1;" parent="1" vertex="1">
          <mxGeometry x="122" y="738.5" width="99" height="113.5" as="geometry" />
        </mxCell>
        <mxCell id="_vH6LDevAkohXij_CY47-179" value="" style="endArrow=none;html=1;rounded=0;fontSize=12;startSize=8;endSize=8;curved=1;strokeWidth=2;strokeColor=#F205FF;entryX=0.532;entryY=1.044;entryDx=0;entryDy=0;entryPerimeter=0;exitX=0.056;exitY=0.508;exitDx=0;exitDy=0;exitPerimeter=0;" parent="1" source="_vH6LDevAkohXij_CY47-187" target="_vH6LDevAkohXij_CY47-170" edge="1">
          <mxGeometry width="50" height="50" relative="1" as="geometry">
            <mxPoint x="149" y="1130" as="sourcePoint" />
            <mxPoint x="199" y="1080" as="targetPoint" />
            <Array as="points">
              <mxPoint x="-42" y="1188" />
            </Array>
          </mxGeometry>
        </mxCell>
        <mxCell id="_vH6LDevAkohXij_CY47-181" value="" style="endArrow=none;html=1;rounded=0;fontSize=12;startSize=8;endSize=8;curved=1;exitX=1;exitY=0.5;exitDx=0;exitDy=0;exitPerimeter=0;strokeColor=#F205FF;strokeWidth=2;entryX=-0.051;entryY=0.513;entryDx=0;entryDy=0;entryPerimeter=0;" parent="1" source="_vH6LDevAkohXij_CY47-184" target="_vH6LDevAkohXij_CY47-175" edge="1">
          <mxGeometry width="50" height="50" relative="1" as="geometry">
            <mxPoint x="225" y="901" as="sourcePoint" />
            <mxPoint x="360" y="1001" as="targetPoint" />
            <Array as="points">
              <mxPoint x="327" y="1069" />
            </Array>
          </mxGeometry>
        </mxCell>
        <mxCell id="_vH6LDevAkohXij_CY47-186" value="" style="endArrow=none;html=1;rounded=0;fontSize=12;startSize=8;endSize=8;curved=1;exitX=1;exitY=0.5;exitDx=0;exitDy=0;exitPerimeter=0;strokeColor=#F205FF;strokeWidth=2;entryX=-0.051;entryY=0.513;entryDx=0;entryDy=0;entryPerimeter=0;" parent="1" source="_vH6LDevAkohXij_CY47-170" target="_vH6LDevAkohXij_CY47-184" edge="1">
          <mxGeometry width="50" height="50" relative="1" as="geometry">
            <mxPoint x="70" y="1064" as="sourcePoint" />
            <mxPoint x="418" y="1031" as="targetPoint" />
            <Array as="points" />
          </mxGeometry>
        </mxCell>
        <mxCell id="_vH6LDevAkohXij_CY47-184" value="DHCP 192.150.25.2/24&lt;br&gt;MAC: 4C-99-BD-FF-E7-30&lt;br&gt;&amp;nbsp;" style="text;html=1;whiteSpace=wrap;align=center;verticalAlign=middle;rounded=0;fontColor=light-dark(#ffffff, #ededed);fontSize=12;" parent="1" vertex="1">
          <mxGeometry x="137.9" y="1037.8" width="181" height="45" as="geometry" />
        </mxCell>
        <mxCell id="_vH6LDevAkohXij_CY47-187" value="DHCP 192.150.25.3/24&lt;br style=&quot;padding: 0px; margin: 0px;&quot;&gt;MAC: 6E-0B-B5-CF-0F-6C" style="text;html=1;whiteSpace=wrap;align=center;verticalAlign=middle;rounded=0;fontColor=light-dark(#ffffff, #ededed);fontSize=12;" parent="1" vertex="1">
          <mxGeometry x="131" y="1138" width="145" height="45" as="geometry" />
        </mxCell>
        <mxCell id="_vH6LDevAkohXij_CY47-197" value="" style="endArrow=none;html=1;rounded=0;fontSize=12;startSize=8;endSize=8;curved=1;exitX=1;exitY=0.5;exitDx=0;exitDy=0;strokeColor=#F205FF;strokeWidth=2;entryX=0.029;entryY=0.499;entryDx=0;entryDy=0;entryPerimeter=0;" parent="1" source="_vH6LDevAkohXij_CY47-187" target="_vH6LDevAkohXij_CY47-173" edge="1">
          <mxGeometry width="50" height="50" relative="1" as="geometry">
            <mxPoint x="136" y="1072" as="sourcePoint" />
            <mxPoint x="238" y="1067" as="targetPoint" />
            <Array as="points" />
          </mxGeometry>
        </mxCell>
        <mxCell id="_vH6LDevAkohXij_CY47-200" value="DHCP PoolVPN&#xa;10.8.0.3" style="text;whiteSpace=wrap;fontColor=#FFFFFF;align=center;" parent="1" vertex="1">
          <mxGeometry x="601.88" y="1031" width="170" height="36" as="geometry" />
        </mxCell>
        <mxCell id="_vH6LDevAkohXij_CY47-183" value="DHCP PoolVPN&lt;br&gt;10.8.0.2" style="text;html=1;whiteSpace=wrap;strokeColor=none;fillColor=none;align=center;verticalAlign=middle;rounded=0;fontColor=#FFFFFF;" parent="1" vertex="1">
          <mxGeometry x="484" y="932" width="181.6" height="48" as="geometry" />
        </mxCell>
        <mxCell id="_vH6LDevAkohXij_CY47-204" value="" style="endArrow=none;html=1;rounded=0;fontSize=12;startSize=8;endSize=8;curved=1;fontColor=#A500FF;strokeColor=#A500FF;strokeWidth=2;entryX=0.91;entryY=1;entryDx=0;entryDy=0;entryPerimeter=0;" parent="1" source="_vH6LDevAkohXij_CY47-183" target="_vH6LDevAkohXij_CY47-172" edge="1">
          <mxGeometry width="50" height="50" relative="1" as="geometry">
            <mxPoint x="666" y="898" as="sourcePoint" />
            <mxPoint x="716" y="848" as="targetPoint" />
            <Array as="points">
              <mxPoint x="583" y="791" />
            </Array>
          </mxGeometry>
        </mxCell>
        <mxCell id="_vH6LDevAkohXij_CY47-205" value="" style="endArrow=none;html=1;rounded=0;fontSize=12;startSize=8;endSize=8;curved=1;fontColor=#A500FF;strokeColor=#A500FF;strokeWidth=2;entryX=0.946;entryY=0.091;entryDx=0;entryDy=0;entryPerimeter=0;exitX=0.5;exitY=0;exitDx=0;exitDy=0;" parent="1" source="_vH6LDevAkohXij_CY47-200" target="_vH6LDevAkohXij_CY47-172" edge="1">
          <mxGeometry width="50" height="50" relative="1" as="geometry">
            <mxPoint x="639" y="945" as="sourcePoint" />
            <mxPoint x="615" y="818" as="targetPoint" />
            <Array as="points">
              <mxPoint x="683" y="702" />
            </Array>
          </mxGeometry>
        </mxCell>
        <mxCell id="_vH6LDevAkohXij_CY47-206" value="" style="endArrow=none;html=1;rounded=0;fontSize=12;startSize=8;endSize=8;curved=1;fontColor=#A500FF;strokeColor=#A500FF;strokeWidth=2;exitX=0.959;exitY=0.542;exitDx=0;exitDy=0;exitPerimeter=0;entryX=0.5;entryY=1;entryDx=0;entryDy=0;" parent="1" source="_vH6LDevAkohXij_CY47-175" target="_vH6LDevAkohXij_CY47-183" edge="1">
          <mxGeometry width="50" height="50" relative="1" as="geometry">
            <mxPoint x="570" y="1016" as="sourcePoint" />
            <mxPoint x="564" y="859" as="targetPoint" />
            <Array as="points">
              <mxPoint x="587" y="1036" />
            </Array>
          </mxGeometry>
        </mxCell>
        <mxCell id="_vH6LDevAkohXij_CY47-207" value="" style="endArrow=none;html=1;rounded=0;fontSize=12;startSize=8;endSize=8;curved=1;fontColor=#A500FF;strokeColor=#A500FF;strokeWidth=2;entryX=0.5;entryY=1;entryDx=0;entryDy=0;" parent="1" source="_vH6LDevAkohXij_CY47-173" target="_vH6LDevAkohXij_CY47-200" edge="1">
          <mxGeometry width="50" height="50" relative="1" as="geometry">
            <mxPoint x="808" y="1229" as="sourcePoint" />
            <mxPoint x="666" y="922" as="targetPoint" />
            <Array as="points">
              <mxPoint x="692" y="1170" />
            </Array>
          </mxGeometry>
        </mxCell>
        <mxCell id="HiF5g3EUWUSYPlIPv2w1-2" value="&lt;font color=&quot;#ffffff&quot;&gt;Puerto&amp;nbsp;&lt;br&gt;21&lt;/font&gt;" style="text;html=1;whiteSpace=wrap;strokeColor=none;fillColor=none;align=center;verticalAlign=middle;rounded=0;" vertex="1" parent="1">
          <mxGeometry x="826" y="271" width="44" height="37" as="geometry" />
        </mxCell>
        <mxCell id="HiF5g3EUWUSYPlIPv2w1-3" value="&lt;font color=&quot;#ffffff&quot;&gt;192.168.20.12&lt;/font&gt;" style="text;html=1;whiteSpace=wrap;strokeColor=none;fillColor=none;align=center;verticalAlign=middle;rounded=0;" vertex="1" parent="1">
          <mxGeometry x="916" y="355" width="44" height="37" as="geometry" />
        </mxCell>
        <mxCell id="HiF5g3EUWUSYPlIPv2w1-4" value="&lt;font color=&quot;#ffffff&quot;&gt;Puerto&amp;nbsp;&lt;br&gt;9443 (https)&lt;/font&gt;&lt;div&gt;&lt;font color=&quot;#ffffff&quot;&gt;&lt;br&gt;&lt;/font&gt;&lt;/div&gt;" style="text;html=1;whiteSpace=wrap;strokeColor=none;fillColor=none;align=center;verticalAlign=middle;rounded=0;" vertex="1" parent="1">
          <mxGeometry x="1070" y="278.5" width="69" height="37" as="geometry" />
        </mxCell>
        <mxCell id="HiF5g3EUWUSYPlIPv2w1-5" value="&lt;font color=&quot;#ffffff&quot;&gt;192.168.20.13&lt;/font&gt;" style="text;html=1;whiteSpace=wrap;strokeColor=none;fillColor=none;align=center;verticalAlign=middle;rounded=0;" vertex="1" parent="1">
          <mxGeometry x="1092" y="368" width="44" height="37" as="geometry" />
        </mxCell>
        <mxCell id="HiF5g3EUWUSYPlIPv2w1-6" value="" style="endArrow=none;html=1;rounded=0;fontSize=12;startSize=8;endSize=8;curved=1;fillColor=#b0e3e6;strokeColor=#1BF1FF;strokeWidth=2;" edge="1" parent="1" source="_vH6LDevAkohXij_CY47-8" target="HiF5g3EUWUSYPlIPv2w1-2">
          <mxGeometry width="50" height="50" relative="1" as="geometry">
            <mxPoint x="639" y="217" as="sourcePoint" />
            <mxPoint x="822" y="259" as="targetPoint" />
            <Array as="points">
              <mxPoint x="754" y="218" />
            </Array>
          </mxGeometry>
        </mxCell>
        <mxCell id="HiF5g3EUWUSYPlIPv2w1-7" value="" style="endArrow=none;html=1;rounded=0;fontSize=12;startSize=8;endSize=8;curved=1;fillColor=#b0e3e6;strokeColor=#1BF1FF;strokeWidth=2;" edge="1" parent="1" source="HiF5g3EUWUSYPlIPv2w1-2" target="HiF5g3EUWUSYPlIPv2w1-3">
          <mxGeometry width="50" height="50" relative="1" as="geometry">
            <mxPoint x="835" y="323" as="sourcePoint" />
            <mxPoint x="1158" y="366" as="targetPoint" />
            <Array as="points">
              <mxPoint x="906" y="320" />
            </Array>
          </mxGeometry>
        </mxCell>
        <mxCell id="HiF5g3EUWUSYPlIPv2w1-8" value="" style="sketch=0;outlineConnect=0;dashed=0;verticalLabelPosition=bottom;verticalAlign=top;align=center;html=1;fontSize=12;fontStyle=0;aspect=fixed;pointerEvents=1;shape=mxgraph.aws4.traditional_server;fillColor=#b0e3e6;strokeColor=#0e8088;" vertex="1" parent="1">
          <mxGeometry x="944" y="461" width="47.88" height="83" as="geometry" />
        </mxCell>
        <mxCell id="HiF5g3EUWUSYPlIPv2w1-9" value="" style="sketch=0;outlineConnect=0;dashed=0;verticalLabelPosition=bottom;verticalAlign=top;align=center;html=1;fontSize=12;fontStyle=0;aspect=fixed;pointerEvents=1;shape=mxgraph.aws4.traditional_server;fillColor=#b0e3e6;strokeColor=#0e8088;" vertex="1" parent="1">
          <mxGeometry x="1088.12" y="467" width="47.88" height="83" as="geometry" />
        </mxCell>
        <mxCell id="HiF5g3EUWUSYPlIPv2w1-10" value="" style="endArrow=none;html=1;rounded=0;fontSize=12;startSize=8;endSize=8;curved=1;fillColor=#b0e3e6;strokeColor=#1BF1FF;strokeWidth=2;" edge="1" parent="1" source="HiF5g3EUWUSYPlIPv2w1-3" target="HiF5g3EUWUSYPlIPv2w1-8">
          <mxGeometry width="50" height="50" relative="1" as="geometry">
            <mxPoint x="963" y="407.67" as="sourcePoint" />
            <mxPoint x="1020" y="461.67" as="targetPoint" />
            <Array as="points">
              <mxPoint x="982" y="424" />
            </Array>
          </mxGeometry>
        </mxCell>
        <mxCell id="HiF5g3EUWUSYPlIPv2w1-11" value="" style="endArrow=none;html=1;rounded=0;fontSize=12;startSize=8;endSize=8;curved=1;fillColor=#b0e3e6;strokeColor=#1BF1FF;strokeWidth=2;exitX=0.956;exitY=0.03;exitDx=0;exitDy=0;exitPerimeter=0;entryX=0.25;entryY=0;entryDx=0;entryDy=0;" edge="1" parent="1" source="_vH6LDevAkohXij_CY47-8" target="HiF5g3EUWUSYPlIPv2w1-4">
          <mxGeometry width="50" height="50" relative="1" as="geometry">
            <mxPoint x="575.44" y="207" as="sourcePoint" />
            <mxPoint x="898.44" y="250" as="targetPoint" />
            <Array as="points">
              <mxPoint x="826.44" y="195" />
            </Array>
          </mxGeometry>
        </mxCell>
        <mxCell id="HiF5g3EUWUSYPlIPv2w1-12" value="" style="endArrow=none;html=1;rounded=0;fontSize=12;startSize=8;endSize=8;curved=1;fillColor=#b0e3e6;strokeColor=#1BF1FF;strokeWidth=2;" edge="1" parent="1" source="HiF5g3EUWUSYPlIPv2w1-4" target="HiF5g3EUWUSYPlIPv2w1-5">
          <mxGeometry width="50" height="50" relative="1" as="geometry">
            <mxPoint x="705" y="325" as="sourcePoint" />
            <mxPoint x="1303" y="386" as="targetPoint" />
            <Array as="points">
              <mxPoint x="1112" y="343" />
            </Array>
          </mxGeometry>
        </mxCell>
        <mxCell id="HiF5g3EUWUSYPlIPv2w1-13" value="" style="endArrow=none;html=1;rounded=0;fontSize=12;startSize=8;endSize=8;curved=1;fillColor=#b0e3e6;strokeColor=#1BF1FF;strokeWidth=2;" edge="1" parent="1" source="HiF5g3EUWUSYPlIPv2w1-5" target="HiF5g3EUWUSYPlIPv2w1-9">
          <mxGeometry width="50" height="50" relative="1" as="geometry">
            <mxPoint x="1127" y="409" as="sourcePoint" />
            <mxPoint x="1132" y="461" as="targetPoint" />
            <Array as="points" />
          </mxGeometry>
        </mxCell>
        <mxCell id="HiF5g3EUWUSYPlIPv2w1-14" value="&lt;font color=&quot;#ffffff&quot;&gt;Servidor FTP&lt;/font&gt;" style="text;html=1;whiteSpace=wrap;strokeColor=none;fillColor=none;align=center;verticalAlign=middle;rounded=0;" vertex="1" parent="1">
          <mxGeometry x="904" y="554" width="117" height="30" as="geometry" />
        </mxCell>
        <mxCell id="HiF5g3EUWUSYPlIPv2w1-15" value="&lt;font color=&quot;#ffffff&quot;&gt;Portainer&lt;/font&gt;" style="text;html=1;whiteSpace=wrap;strokeColor=none;fillColor=none;align=center;verticalAlign=middle;rounded=0;" vertex="1" parent="1">
          <mxGeometry x="1058" y="554" width="117" height="30" as="geometry" />
        </mxCell>
      </root>
    </mxGraphModel>
  </diagram>
</mxfile>
